<mxfile host="app.diagrams.net" modified="2020-03-23T17:30:57.318Z" agent="Mozilla/5.0 (X11; Fedora; Linux x86_64; rv:74.0) Gecko/20100101 Firefox/74.0" etag="jdqDwMiltyP0h1wUq-UY" version="12.9.0" type="github">
  <diagram id="5Qrj_cHMlwDHXTjBdwBp" name="Page-1">
    <mxGraphModel dx="824" dy="1561" grid="1" gridSize="10" guides="1" tooltips="1" connect="1" arrows="1" fold="1" page="1" pageScale="1" pageWidth="850" pageHeight="1100" math="0" shadow="0">
      <root>
        <mxCell id="0" />
        <mxCell id="1" parent="0" />
        <mxCell id="1Fe0VKBd-OM9YCjam9Hl-1" value="" style="ellipse;html=1;shape=startState;fillColor=#000000;strokeColor=#ff0000;" vertex="1" parent="1">
          <mxGeometry x="160" y="200" width="40" height="40" as="geometry" />
        </mxCell>
        <mxCell id="1Fe0VKBd-OM9YCjam9Hl-2" value="" style="edgeStyle=orthogonalEdgeStyle;html=1;verticalAlign=bottom;endArrow=open;endSize=8;strokeColor=#ff0000;" edge="1" source="1Fe0VKBd-OM9YCjam9Hl-1" parent="1" target="1Fe0VKBd-OM9YCjam9Hl-15">
          <mxGeometry relative="1" as="geometry">
            <mxPoint x="240" y="220" as="targetPoint" />
          </mxGeometry>
        </mxCell>
        <mxCell id="1Fe0VKBd-OM9YCjam9Hl-19" value="Войти в аккаунт" style="edgeStyle=orthogonalEdgeStyle;rounded=0;orthogonalLoop=1;jettySize=auto;html=1;exitX=0.5;exitY=0;exitDx=0;exitDy=0;entryX=0;entryY=0.5;entryDx=0;entryDy=0;" edge="1" parent="1" source="1Fe0VKBd-OM9YCjam9Hl-15" target="1Fe0VKBd-OM9YCjam9Hl-17">
          <mxGeometry x="0.6667" y="-30" relative="1" as="geometry">
            <mxPoint as="offset" />
          </mxGeometry>
        </mxCell>
        <mxCell id="1Fe0VKBd-OM9YCjam9Hl-58" value="Перейти в каталог" style="edgeStyle=orthogonalEdgeStyle;curved=1;orthogonalLoop=1;jettySize=auto;html=1;exitX=0.5;exitY=1;exitDx=0;exitDy=0;entryX=0.5;entryY=0;entryDx=0;entryDy=0;" edge="1" parent="1" source="1Fe0VKBd-OM9YCjam9Hl-15" target="1Fe0VKBd-OM9YCjam9Hl-57">
          <mxGeometry relative="1" as="geometry" />
        </mxCell>
        <mxCell id="1Fe0VKBd-OM9YCjam9Hl-15" value="&lt;div&gt;Главная страница&lt;/div&gt;" style="rounded=1;whiteSpace=wrap;html=1;arcSize=40;fontColor=#000000;fillColor=#ffffc0;strokeColor=#ff0000;" vertex="1" parent="1">
          <mxGeometry x="240" y="200" width="120" height="40" as="geometry" />
        </mxCell>
        <mxCell id="1Fe0VKBd-OM9YCjam9Hl-16" value="Зарегистрироваться" style="edgeStyle=orthogonalEdgeStyle;html=1;verticalAlign=bottom;endArrow=open;endSize=8;strokeColor=#ff0000;exitX=1;exitY=0.5;exitDx=0;exitDy=0;" edge="1" source="1Fe0VKBd-OM9YCjam9Hl-15" parent="1" target="1Fe0VKBd-OM9YCjam9Hl-21">
          <mxGeometry relative="1" as="geometry">
            <mxPoint x="400" y="220" as="targetPoint" />
          </mxGeometry>
        </mxCell>
        <mxCell id="1Fe0VKBd-OM9YCjam9Hl-24" value="Ввод логина[Логин не существует]" style="edgeStyle=orthogonalEdgeStyle;orthogonalLoop=1;jettySize=auto;html=1;exitX=0.25;exitY=0;exitDx=0;exitDy=0;entryX=0.75;entryY=0;entryDx=0;entryDy=0;curved=1;" edge="1" parent="1" source="1Fe0VKBd-OM9YCjam9Hl-17" target="1Fe0VKBd-OM9YCjam9Hl-17">
          <mxGeometry relative="1" as="geometry">
            <mxPoint x="380" y="50" as="targetPoint" />
            <Array as="points">
              <mxPoint x="390" y="80" />
              <mxPoint x="450" y="80" />
            </Array>
          </mxGeometry>
        </mxCell>
        <mxCell id="1Fe0VKBd-OM9YCjam9Hl-32" value="Ввод логина[Логин существует]" style="edgeStyle=orthogonalEdgeStyle;curved=1;orthogonalLoop=1;jettySize=auto;html=1;" edge="1" parent="1" source="1Fe0VKBd-OM9YCjam9Hl-17" target="1Fe0VKBd-OM9YCjam9Hl-31">
          <mxGeometry relative="1" as="geometry" />
        </mxCell>
        <mxCell id="1Fe0VKBd-OM9YCjam9Hl-17" value="Ввести логин" style="rounded=1;whiteSpace=wrap;html=1;arcSize=40;fontColor=#000000;fillColor=#ffffc0;strokeColor=#ff0000;" vertex="1" parent="1">
          <mxGeometry x="360" y="120" width="120" height="40" as="geometry" />
        </mxCell>
        <mxCell id="1Fe0VKBd-OM9YCjam9Hl-38" value="Ввод пароля[Пароль верен]" style="edgeStyle=orthogonalEdgeStyle;curved=1;orthogonalLoop=1;jettySize=auto;html=1;" edge="1" parent="1" source="1Fe0VKBd-OM9YCjam9Hl-31" target="1Fe0VKBd-OM9YCjam9Hl-37">
          <mxGeometry relative="1" as="geometry" />
        </mxCell>
        <mxCell id="1Fe0VKBd-OM9YCjam9Hl-31" value="Ввести пароль" style="rounded=1;whiteSpace=wrap;html=1;arcSize=40;fontColor=#000000;fillColor=#ffffc0;strokeColor=#ff0000;" vertex="1" parent="1">
          <mxGeometry x="680" y="119" width="120" height="42" as="geometry" />
        </mxCell>
        <mxCell id="1Fe0VKBd-OM9YCjam9Hl-62" style="edgeStyle=orthogonalEdgeStyle;orthogonalLoop=1;jettySize=auto;html=1;exitX=1;exitY=0.5;exitDx=0;exitDy=0;entryX=1;entryY=0.75;entryDx=0;entryDy=0;rounded=1;" edge="1" parent="1" source="1Fe0VKBd-OM9YCjam9Hl-37" target="1Fe0VKBd-OM9YCjam9Hl-57">
          <mxGeometry relative="1" as="geometry">
            <Array as="points">
              <mxPoint x="1340" y="140" />
              <mxPoint x="1340" y="310" />
            </Array>
          </mxGeometry>
        </mxCell>
        <mxCell id="1Fe0VKBd-OM9YCjam9Hl-37" value="Успешно авторизирован" style="rounded=1;whiteSpace=wrap;html=1;arcSize=40;fontColor=#000000;fillColor=#ffffc0;strokeColor=#ff0000;" vertex="1" parent="1">
          <mxGeometry x="960" y="119" width="120" height="42" as="geometry" />
        </mxCell>
        <mxCell id="1Fe0VKBd-OM9YCjam9Hl-21" value="Ввести логин" style="rounded=1;whiteSpace=wrap;html=1;arcSize=40;fontColor=#000000;fillColor=#ffffc0;strokeColor=#ff0000;" vertex="1" parent="1">
          <mxGeometry x="479.9999999999999" y="200" width="120" height="40" as="geometry" />
        </mxCell>
        <mxCell id="1Fe0VKBd-OM9YCjam9Hl-34" value="Ввод логина[Логин существует]" style="edgeStyle=orthogonalEdgeStyle;curved=1;orthogonalLoop=1;jettySize=auto;html=1;exitX=0.25;exitY=1;exitDx=0;exitDy=0;entryX=0.75;entryY=1;entryDx=0;entryDy=0;" edge="1" parent="1" source="1Fe0VKBd-OM9YCjam9Hl-21" target="1Fe0VKBd-OM9YCjam9Hl-21">
          <mxGeometry relative="1" as="geometry">
            <mxPoint x="440" y="290" as="sourcePoint" />
            <mxPoint x="640" y="290" as="targetPoint" />
            <Array as="points">
              <mxPoint x="510" y="280" />
              <mxPoint x="570" y="280" />
            </Array>
          </mxGeometry>
        </mxCell>
        <mxCell id="1Fe0VKBd-OM9YCjam9Hl-35" value="Ввод логина[Логин не существует]" style="edgeStyle=orthogonalEdgeStyle;orthogonalLoop=1;jettySize=auto;html=1;exitX=1;exitY=0.5;exitDx=0;exitDy=0;curved=1;" edge="1" parent="1" source="1Fe0VKBd-OM9YCjam9Hl-21">
          <mxGeometry relative="1" as="geometry">
            <mxPoint x="800" y="220" as="targetPoint" />
            <mxPoint x="730" y="270" as="sourcePoint" />
            <Array as="points">
              <mxPoint x="730" y="220" />
              <mxPoint x="730" y="220" />
            </Array>
          </mxGeometry>
        </mxCell>
        <mxCell id="1Fe0VKBd-OM9YCjam9Hl-55" value="Ввод пароля[пароль сильный]" style="edgeStyle=orthogonalEdgeStyle;curved=1;orthogonalLoop=1;jettySize=auto;html=1;" edge="1" parent="1" source="1Fe0VKBd-OM9YCjam9Hl-36" target="1Fe0VKBd-OM9YCjam9Hl-54">
          <mxGeometry relative="1" as="geometry" />
        </mxCell>
        <mxCell id="1Fe0VKBd-OM9YCjam9Hl-36" value="Ввести пароль" style="rounded=1;whiteSpace=wrap;html=1;arcSize=40;fontColor=#000000;fillColor=#ffffc0;strokeColor=#ff0000;" vertex="1" parent="1">
          <mxGeometry x="800" y="198" width="120" height="42" as="geometry" />
        </mxCell>
        <mxCell id="1Fe0VKBd-OM9YCjam9Hl-60" style="edgeStyle=orthogonalEdgeStyle;orthogonalLoop=1;jettySize=auto;html=1;exitX=1;exitY=0.5;exitDx=0;exitDy=0;entryX=1;entryY=0.25;entryDx=0;entryDy=0;rounded=1;" edge="1" parent="1" source="1Fe0VKBd-OM9YCjam9Hl-54" target="1Fe0VKBd-OM9YCjam9Hl-57">
          <mxGeometry relative="1" as="geometry">
            <Array as="points">
              <mxPoint x="1280" y="220" />
              <mxPoint x="1280" y="290" />
            </Array>
          </mxGeometry>
        </mxCell>
        <mxCell id="1Fe0VKBd-OM9YCjam9Hl-54" value="Успешно зарегистрирован" style="rounded=1;whiteSpace=wrap;html=1;arcSize=40;fontColor=#000000;fillColor=#ffffc0;strokeColor=#ff0000;" vertex="1" parent="1">
          <mxGeometry x="1120" y="199" width="120" height="42" as="geometry" />
        </mxCell>
        <mxCell id="1Fe0VKBd-OM9YCjam9Hl-39" value="Ввод пароля[Пароль не верен]" style="edgeStyle=orthogonalEdgeStyle;curved=1;orthogonalLoop=1;jettySize=auto;html=1;exitX=0.5;exitY=0;exitDx=0;exitDy=0;entryX=0.5;entryY=1;entryDx=0;entryDy=0;" edge="1" parent="1" source="1Fe0VKBd-OM9YCjam9Hl-31" target="1Fe0VKBd-OM9YCjam9Hl-40">
          <mxGeometry relative="1" as="geometry">
            <mxPoint x="760" y="90" as="sourcePoint" />
            <mxPoint x="920" y="90" as="targetPoint" />
          </mxGeometry>
        </mxCell>
        <mxCell id="1Fe0VKBd-OM9YCjam9Hl-40" value="Ввести пароль" style="rounded=1;whiteSpace=wrap;html=1;arcSize=40;fontColor=#000000;fillColor=#ffffc0;strokeColor=#ff0000;" vertex="1" parent="1">
          <mxGeometry x="680" width="120" height="42" as="geometry" />
        </mxCell>
        <mxCell id="1Fe0VKBd-OM9YCjam9Hl-42" value="Ввод пароля[Пароль верен]" style="edgeStyle=orthogonalEdgeStyle;curved=1;orthogonalLoop=1;jettySize=auto;html=1;exitX=1;exitY=0.5;exitDx=0;exitDy=0;entryX=0;entryY=0.25;entryDx=0;entryDy=0;" edge="1" parent="1" source="1Fe0VKBd-OM9YCjam9Hl-40" target="1Fe0VKBd-OM9YCjam9Hl-37">
          <mxGeometry x="-0.4042" y="-35" relative="1" as="geometry">
            <mxPoint x="820" y="20.660000000000053" as="sourcePoint" />
            <mxPoint x="980" y="20.660000000000053" as="targetPoint" />
            <mxPoint x="55" y="29" as="offset" />
          </mxGeometry>
        </mxCell>
        <mxCell id="1Fe0VKBd-OM9YCjam9Hl-43" value="Ввод пароля[Пароль не верен]" style="edgeStyle=orthogonalEdgeStyle;curved=1;orthogonalLoop=1;jettySize=auto;html=1;entryX=0.5;entryY=1;entryDx=0;entryDy=0;exitX=0.5;exitY=0;exitDx=0;exitDy=0;" edge="1" parent="1" target="1Fe0VKBd-OM9YCjam9Hl-44" source="1Fe0VKBd-OM9YCjam9Hl-40">
          <mxGeometry relative="1" as="geometry">
            <mxPoint x="750" y="-10" as="sourcePoint" />
            <mxPoint x="920" y="-29" as="targetPoint" />
          </mxGeometry>
        </mxCell>
        <mxCell id="1Fe0VKBd-OM9YCjam9Hl-44" value="Ввести пароль" style="rounded=1;whiteSpace=wrap;html=1;arcSize=40;fontColor=#000000;fillColor=#ffffc0;strokeColor=#ff0000;" vertex="1" parent="1">
          <mxGeometry x="680" y="-119" width="120" height="42" as="geometry" />
        </mxCell>
        <mxCell id="1Fe0VKBd-OM9YCjam9Hl-50" style="edgeStyle=orthogonalEdgeStyle;curved=1;orthogonalLoop=1;jettySize=auto;html=1;exitX=0;exitY=0.5;exitDx=0;exitDy=0;entryX=1;entryY=0.5;entryDx=0;entryDy=0;" edge="1" parent="1" source="1Fe0VKBd-OM9YCjam9Hl-45" target="1Fe0VKBd-OM9YCjam9Hl-49">
          <mxGeometry relative="1" as="geometry" />
        </mxCell>
        <mxCell id="1Fe0VKBd-OM9YCjam9Hl-45" value="Отправить сообщение о возможном взломе на почту" style="rounded=1;whiteSpace=wrap;html=1;arcSize=40;fontColor=#000000;fillColor=#ffffc0;strokeColor=#ff0000;" vertex="1" parent="1">
          <mxGeometry x="640" y="-240" width="200" height="42" as="geometry" />
        </mxCell>
        <mxCell id="1Fe0VKBd-OM9YCjam9Hl-46" value="Ввод пароля[Пароль не верен]" style="edgeStyle=orthogonalEdgeStyle;curved=1;orthogonalLoop=1;jettySize=auto;html=1;entryX=0.5;entryY=1;entryDx=0;entryDy=0;exitX=0.5;exitY=0;exitDx=0;exitDy=0;" edge="1" parent="1" source="1Fe0VKBd-OM9YCjam9Hl-44" target="1Fe0VKBd-OM9YCjam9Hl-45">
          <mxGeometry relative="1" as="geometry">
            <mxPoint x="750" y="10" as="sourcePoint" />
            <mxPoint x="750" y="-67" as="targetPoint" />
          </mxGeometry>
        </mxCell>
        <mxCell id="1Fe0VKBd-OM9YCjam9Hl-47" value="Ввод пароля[Пароль верен]" style="edgeStyle=orthogonalEdgeStyle;curved=1;orthogonalLoop=1;jettySize=auto;html=1;exitX=1;exitY=0.5;exitDx=0;exitDy=0;entryX=0.5;entryY=0;entryDx=0;entryDy=0;" edge="1" parent="1" source="1Fe0VKBd-OM9YCjam9Hl-44" target="1Fe0VKBd-OM9YCjam9Hl-37">
          <mxGeometry x="0.3638" y="-30" relative="1" as="geometry">
            <mxPoint x="810" y="30.999999999999773" as="sourcePoint" />
            <mxPoint x="970" y="139.5" as="targetPoint" />
            <mxPoint as="offset" />
          </mxGeometry>
        </mxCell>
        <mxCell id="1Fe0VKBd-OM9YCjam9Hl-51" style="edgeStyle=orthogonalEdgeStyle;curved=1;orthogonalLoop=1;jettySize=auto;html=1;exitX=0;exitY=0.5;exitDx=0;exitDy=0;entryX=0.25;entryY=0;entryDx=0;entryDy=0;" edge="1" parent="1" source="1Fe0VKBd-OM9YCjam9Hl-49" target="1Fe0VKBd-OM9YCjam9Hl-15">
          <mxGeometry relative="1" as="geometry" />
        </mxCell>
        <mxCell id="1Fe0VKBd-OM9YCjam9Hl-49" value="Ограничить возможность входа на 15 мин" style="rounded=1;whiteSpace=wrap;html=1;arcSize=40;fontColor=#000000;fillColor=#ffffc0;strokeColor=#ff0000;" vertex="1" parent="1">
          <mxGeometry x="400" y="-240" width="160" height="42" as="geometry" />
        </mxCell>
        <mxCell id="1Fe0VKBd-OM9YCjam9Hl-53" value="Ввод пароля[Пароль слабый]" style="edgeStyle=orthogonalEdgeStyle;curved=1;orthogonalLoop=1;jettySize=auto;html=1;entryX=0.75;entryY=1;entryDx=0;entryDy=0;exitX=0.25;exitY=1;exitDx=0;exitDy=0;" edge="1" parent="1" source="1Fe0VKBd-OM9YCjam9Hl-36" target="1Fe0VKBd-OM9YCjam9Hl-36">
          <mxGeometry relative="1" as="geometry">
            <mxPoint x="830" y="300" as="sourcePoint" />
            <mxPoint x="580" y="250" as="targetPoint" />
            <Array as="points">
              <mxPoint x="830" y="280" />
              <mxPoint x="890" y="280" />
            </Array>
          </mxGeometry>
        </mxCell>
        <mxCell id="1Fe0VKBd-OM9YCjam9Hl-66" value="Поиск по характеристикам" style="edgeStyle=orthogonalEdgeStyle;orthogonalLoop=1;jettySize=auto;html=1;exitX=0.25;exitY=1;exitDx=0;exitDy=0;entryX=0.5;entryY=0;entryDx=0;entryDy=0;curved=1;" edge="1" parent="1" source="1Fe0VKBd-OM9YCjam9Hl-57" target="1Fe0VKBd-OM9YCjam9Hl-65">
          <mxGeometry relative="1" as="geometry" />
        </mxCell>
        <mxCell id="1Fe0VKBd-OM9YCjam9Hl-69" value="Поиск по категориям" style="edgeStyle=orthogonalEdgeStyle;curved=1;orthogonalLoop=1;jettySize=auto;html=1;exitX=0.75;exitY=1;exitDx=0;exitDy=0;entryX=0.5;entryY=0;entryDx=0;entryDy=0;strokeColor=#000000;" edge="1" parent="1" source="1Fe0VKBd-OM9YCjam9Hl-57" target="1Fe0VKBd-OM9YCjam9Hl-63">
          <mxGeometry relative="1" as="geometry" />
        </mxCell>
        <mxCell id="1Fe0VKBd-OM9YCjam9Hl-57" value="Страница каталога" style="rounded=1;whiteSpace=wrap;html=1;arcSize=40;fontColor=#000000;fillColor=#ffffc0;strokeColor=#ff0000;" vertex="1" parent="1">
          <mxGeometry x="240" y="280" width="120" height="40" as="geometry" />
        </mxCell>
        <mxCell id="1Fe0VKBd-OM9YCjam9Hl-63" value="Страница категорий" style="rounded=1;whiteSpace=wrap;html=1;arcSize=40;fontColor=#000000;fillColor=#ffffc0;strokeColor=#ff0000;" vertex="1" parent="1">
          <mxGeometry x="360" y="360" width="120" height="40" as="geometry" />
        </mxCell>
        <mxCell id="1Fe0VKBd-OM9YCjam9Hl-65" value="Страница поиска" style="rounded=1;whiteSpace=wrap;html=1;arcSize=40;fontColor=#000000;fillColor=#ffffc0;strokeColor=#ff0000;" vertex="1" parent="1">
          <mxGeometry x="120" y="360" width="120" height="40" as="geometry" />
        </mxCell>
      </root>
    </mxGraphModel>
  </diagram>
</mxfile>
